<?xml version="1.0" encoding="UTF-8"?>
<svg width="163px" height="23px" viewBox="0 0 163 23" version="1.1" xmlns="http://www.w3.org/2000/svg" xmlns:xlink="http://www.w3.org/1999/xlink">
    <!-- Generator: Sketch 57.1 (83088) - https://sketch.com -->
    <title>02_Hyundai_logo</title>
    <desc>Created with Sketch.</desc>
    <g id="Page-1" stroke="none" stroke-width="1" fill="none" fill-rule="evenodd">
        <g id="1920.m1" transform="translate(-587.000000, -6159.000000)" fill="#FFFFFF" fill-rule="nonzero">
            <g id="02_Hyundai_logo" transform="translate(587.000000, 6159.000000)">
                <polygon id="Path" points="16.6747001 8.97944829 5.32762539 8.97944829 5.32762539 -2.61551197e-13 0 -2.61551197e-13 0 23 5.32762539 23 5.32762539 13.4752255 16.6747001 13.4752255 16.6747001 23 22 23 22 -2.61551197e-13 16.6747001 -2.61551197e-13"></polygon>
                <path d="M130.193943,1.31186449 C129.073966,2.39426275 129.029121,3.9735627 129,4.89417901 L129,23 L134.327897,23 L134.327897,15.6614829 L145.648806,15.6614829 L145.648806,23 L151,23 L151,-2.61551197e-13 L134.365754,-2.61551197e-13 C132.785673,0.0137569682 131.306931,0.230566787 130.193943,1.31186449 Z M135.320815,4 L145,4 L145,11 L134,11 L134,5.37715322 C134.021504,5.10022253 133.969441,4.59828567 134.199197,4.30116212 C134.443667,3.98788428 134.834139,4.0132696 135.320815,4 Z" id="Shape"></path>
                <path d="M93.6367841,-2.61551197e-13 L77,-2.61551197e-13 L77,23 L82.3283294,23 L82.3283294,4.49412637 L92.3186563,4.49412637 C92.8152073,4.50678278 93.2222163,4.48257052 93.469329,4.78082159 C93.7071385,5.06421514 93.6600418,5.54295763 93.6769036,5.80709142 L93.6769036,22.9994497 L99,22.9994497 L99,4.89417901 C98.9703465,3.9735627 98.9284827,2.39426275 97.8156038,1.31186449 C96.6986548,0.230566787 95.2241192,0.0137569682 93.6367841,-2.61551197e-13 Z" id="Path"></path>
                <path d="M67.6730967,17.1901572 C67.6539122,17.4597938 67.7021642,17.928081 67.4672991,18.2136756 C67.2144122,18.5152284 66.8097931,18.488815 66.3156462,18.5014714 L56.32981,18.5014714 L56.32981,-2.61551197e-13 L51,-2.61551197e-13 L51,23 L67.6382158,23 C69.2206485,22.9884441 70.6961129,22.7655813 71.8093967,21.6842836 C72.9273313,20.6035361 72.9697698,19.0264373 73,18.1025193 L73,-2.61551197e-13 L67.6748408,-2.61551197e-13 L67.6748408,17.1901572 L67.6730967,17.1901572 Z" id="Path"></path>
                <path d="M126,4.89417901 C125.973821,3.9735627 125.93019,2.39426275 124.816723,1.31186449 C123.702673,0.230566787 122.223868,0.0137569682 120.642092,-2.61551197e-13 L109.325912,-2.61551197e-13 L104,-2.61551197e-13 L104,23 L120.642092,23 C122.223868,22.9884441 123.702673,22.7655813 124.816723,21.6842836 C125.93019,20.6035361 125.973821,19.0264373 126,18.1025193 L126,4.89417901 L126,4.89417901 Z M120,16.6893734 C119.981981,16.9588686 120.029281,17.4269102 119.802918,17.7123551 C119.560788,18.0137498 119.163809,17.9873502 118.684617,18 L109,18 L109,4 L118.684617,4 C119.164935,4.01264977 119.561915,3.98845021 119.802918,4.28654488 C120.028155,4.56978983 119.980855,5.04828128 120,5.31227657 L120,16.6893734 Z" id="Shape"></path>
                <polygon id="Path" points="35.5028416 10.0629471 29.186065 -2.61551197e-13 23 -2.61551197e-13 32.7209593 14.5003948 32.7209593 23 38.2813139 23 38.2813139 14.5003948 48 -2.61551197e-13 41.8122301 -2.61551197e-13"></polygon>
                <rect id="Rectangle" x="157" y="-2.61551197e-13" width="6" height="23"></rect>
            </g>
        </g>
    </g>
</svg>