<?xml version="1.0" encoding="UTF-8"?>
<svg width="183px" height="21px" viewBox="0 0 183 21" version="1.1" xmlns="http://www.w3.org/2000/svg" xmlns:xlink="http://www.w3.org/1999/xlink">
    <!-- Generator: Sketch 57.1 (83088) - https://sketch.com -->
    <title>03_Renault</title>
    <desc>Created with Sketch.</desc>
    <g id="Page-1" stroke="none" stroke-width="1" fill="none" fill-rule="evenodd">
        <g id="1920.m1" transform="translate(-1397.000000, -6159.000000)" fill="#FFFFFF" fill-rule="nonzero">
            <g id="03_Renault" transform="translate(1397.000000, 6159.000000)">
                <g id="Group">
                    <g>
                        <polygon id="Path" points="183 -4.46698234e-13 183 3.88859616 174.398074 3.88859616 174.398074 21 168.59857 21 168.59857 3.88859616 160 3.88859616 160 -4.46698234e-13"></polygon>
                        <polygon id="Path" points="163 17.1082424 163 21 144 21 144 -4.46698234e-13 149.974048 -4.46698234e-13 149.974048 17.1082424"></polygon>
                        <polygon id="Path" points="50 17.1082424 50 21 30 21 30 -4.46698234e-13 49.623819 -4.46698234e-13 49.623819 3.89017689 35.9911589 3.89017689 35.9911589 8.50432819 48.4484701 8.50432819 48.4484701 12.2696274 35.9911589 12.2696274 35.9911589 17.1066616 50 17.1066616"></polygon>
                        <path d="M19.2120075,13.2016712 C21.6785491,11.9338302 23.2028351,9.43450768 23.2028351,6.81504065 C23.2028351,4.63188799 22.5307484,2.93563686 21.1215343,1.82113821 C19.4838441,0.53432701 17.2391078,-5.49726931e-13 13.450073,-5.49726931e-13 L0.235146967,-5.49726931e-13 L-2.76977009e-13,1.26626016 C-2.76977009e-13,1.26626016 0.235146967,1.64408311 0.50865124,2.09778681 C0.918907651,2.766486 0.883885762,2.96251129 0.883885762,3.4098916 L0.883885762,21 L6.64915572,21 L6.64915572,14.2750678 C6.64915572,14.2750678 11.7039817,14.2750678 13.8102981,14.2750678 L17.6543673,21 L24,21 L19.2120075,13.2016712 Z M16.9383102,9.42948876 C16.4813369,9.81476908 15.9401843,10 15.0983914,10 L7,10 L7,4 L13.3976261,4 C15.3011089,4 16.3181321,4.18523092 17.0035921,4.66534947 C17.6753084,5.1291677 18,5.83600889 18,6.87922944 C18,7.95653248 17.6667187,8.82341319 16.9383102,9.42948876 Z" id="Shape"></path>
                    </g>
                    <path d="M73.8808176,0 L73.8808176,13.9283456 C72.5450905,12.3240253 71.1430742,10.7781876 68.7732357,8.29346681 C66.8442204,6.27344573 62.8237812,2.13066386 60.7588731,0.00316122234 L55.2303549,0.00316122234 L55,1.26923077 C55,1.26923077 55.2369838,1.64699684 55.505455,2.10063224 C55.8120425,2.60010537 55.87336,2.83719705 55.8833034,3.10748156 C55.8833034,3.12961012 55.879989,21 55.879989,21 L61.0256871,20.9841939 L61.0256871,7.0748156 C62.0531695,8.38040042 63.882751,10.386196 65.1008148,11.6491043 C67.5303135,14.154373 71.19942,18.0616438 74.0548267,21 L79,21 L79,0.00316122234 L73.8808176,0 Z" id="Path"></path>
                    <path d="M131.320829,0.00155670867 L131.320829,12.6467013 C131.320829,14.0570793 131.016797,14.8961453 130.274356,15.5406227 C129.335386,16.3501112 127.783315,16.7377317 125.542553,16.7377317 C123.268197,16.7377317 121.675812,16.3501112 120.740202,15.5406227 C119.99944,14.8961453 119.695409,14.0539659 119.695409,12.6467013 L119.695409,0.00155670867 L113.235162,0.00155670867 L113,1.24848036 C113,1.24848036 113.240202,1.62053373 113.510638,2.06730912 C113.804591,2.54054855 113.87346,2.77249815 113.886898,3.02935508 C113.886898,3.06204596 113.891937,12.8412898 113.891937,12.8412898 C113.891937,18.2477391 117.844345,21 125.465286,21 L125.62654,21 C133.255879,21 137,18.3240178 137,12.8412898 L137,0 L131.320829,0 L131.320829,0.00155670867 Z" id="Path"></path>
                    <path d="M101.197081,0 L93.7994924,0 C91.5569162,4.27587505 87.6525381,12.1637185 84,21 L89.9413706,21 C90.4142132,19.804968 90.9178934,18.5846443 91.4232868,17.3627399 L103.573287,17.3627399 C104.08382,18.5846443 104.584074,19.804968 105.055203,21 L111,21 C107.342322,12.1637185 103.439657,4.27587505 101.197081,0 Z M93,14 C94.6016053,10.2681398 96.2049726,6.73746702 97.4982381,4 C98.7915035,6.73746702 100.401919,10.2681398 102,14 L93,14 Z" id="Shape"></path>
                </g>
            </g>
        </g>
    </g>
</svg>