<?xml version="1.0" encoding="UTF-8"?>
<svg width="173px" height="24px" viewBox="0 0 173 24" version="1.1" xmlns="http://www.w3.org/2000/svg" xmlns:xlink="http://www.w3.org/1999/xlink">
    <!-- Generator: Sketch 57.1 (83088) - https://sketch.com -->
    <title>05_Volvo_logo</title>
    <desc>Created with Sketch.</desc>
    <g id="Page-1" stroke="none" stroke-width="1" fill="none" fill-rule="evenodd">
        <g id="1920.m1" transform="translate(-833.000000, -6157.000000)" fill="#FFFFFF">
            <g id="05_Volvo_logo" transform="translate(833.000000, 6157.000000)">
                <polygon id="polygon12" points="0 1 0 4.1339991 5.16572652 4.1339991 15.2748888 23 27.7147621 23 37.8239243 4.10267413 42.9887884 4.07027639 43 1 27.5461574 1 27.5461574 4.08100412 31.6616626 4.08100412 24.5231326 17.4932415 16.8028951 4.12777702 22.4339014 4.10267413 22.4239835 1"></polygon>
                <polygon id="polygon14" points="100 1 100 4.1339991 105.164476 4.1339991 115.274361 23 127.715289 23 137.824959 4.10267413 142.990728 4.07027639 143 1 127.548186 1 127.548186 4.08100412 131.662172 4.08100412 124.5235 17.4932415 116.802013 4.12777702 122.435026 4.10267413 122.424461 1"></polygon>
                <path d="M74.2782916,1 L74.2782916,4.13415253 L79.569145,4.13415253 L79.5779796,19.536298 L74,19.536298 L74,22.9693193 L79.5817344,23 L106,23 L106,12.7595085 L102.558681,12.7595085 C102.370062,18.1814121 97.5282295,19.5435927 95.4887496,19.5435927 C93.6199994,19.5435927 89.9991165,19.5365126 89.9991165,19.5365126 L89.9991165,4.12793056 L95.210458,4.10261361 L95.2033903,1 L74.2782916,1 L74.2782916,1 Z" id="path16"></path>
                <path d="M56.5,20 C53.4617294,20 51,16.4201322 51,12.0018737 C51,7.5825743 53.4617294,4 56.5,4 C59.537424,4 62,7.5825743 62,12.0018737 C62,16.4201322 59.537424,20 56.5,20 L56.5,20 Z M56.999783,1 C48.1632171,1 41,6.14993213 41,12.5001062 C41,18.8507051 48.1630001,24 56.999783,24 C65.8356978,24 73,18.8507051 73,12.5001062 C73,6.14993213 65.8356978,1 56.999783,1 L56.999783,1 Z" id="path18"></path>
                <path d="M156.5,19 C153.462086,19 151,15.4190418 151,10.9995903 C151,6.58177768 153.462298,3 156.5,3 C159.538337,3 162,6.58177768 162,10.9995903 C162.000212,15.4188369 159.538337,19 156.5,19 L156.5,19 Z M157.000434,-2.01540173e-13 C148.161436,-2.01540173e-13 141,5.15007724 141,11.500627 C141,17.8509677 148.161219,23 157.000434,23 C165.836177,23 173,17.8509677 173,11.500627 C173,5.15007724 165.836177,-2.01540173e-13 157.000434,-2.01540173e-13 L157.000434,-2.01540173e-13 Z" id="path20"></path>
            </g>
        </g>
    </g>
</svg>