<?xml version="1.0" encoding="UTF-8"?>
<svg width="163px" height="24px" viewBox="0 0 163 24" version="1.1" xmlns="http://www.w3.org/2000/svg" xmlns:xlink="http://www.w3.org/1999/xlink">
    <!-- Generator: Sketch 57.1 (83088) - https://sketch.com -->
    <title>06_Nissan_logo</title>
    <desc>Created with Sketch.</desc>
    <g id="Page-1" stroke="none" stroke-width="1" fill="none" fill-rule="evenodd">
        <g id="1920.m1" transform="translate(-341.000000, -6157.000000)" fill="#FFFFFF" fill-rule="nonzero">
            <g id="06_Nissan_logo" transform="translate(340.000000, 6158.000000)">
                <g id="g7858" transform="translate(82.554348, 11.590345) scale(-1, 1) rotate(-180.000000) translate(-82.554348, -11.590345) translate(1.000000, 0.000000)">
                    <path d="M113,9.69688217 C114.685569,13.5353375 116.32816,17.2489337 116.372482,17.3493359 C116.469184,17.5604381 116.638412,17.6544043 116.904343,17.6814357 C117.023877,17.6917333 117.299209,17.6968822 117.57857,17.6968822 C117.843158,17.6968822 118.111774,17.6917333 118.20579,17.6814357 C118.44083,17.6492555 118.651694,17.5488532 118.747053,17.306858 C119.159379,16.2333263 120.561558,12.9908484 122,9.69688217 L113,9.69688217 L113,9.69688217 Z M124.40072,19.585261 C122.712259,23.4705069 123.346461,23.0401791 119.618118,23.1685944 C119.276308,23.1822556 118.528168,23.1959168 117.414881,23.198649 C116.298849,23.198649 116.006457,23.1904523 115.155363,23.1740588 C111.645284,23.1125834 112.19575,23.3530206 110.994608,20.8366272 C110.995981,20.8366272 104.961446,7.13853972 102.342271,1.44455065 L102.224216,1.20411349 C101.732778,0.240998736 102.093807,0.206845731 102.873519,0.206845731 L108.343861,0.210944092 C108.691162,0.210944092 108.921781,0.422692725 109.011009,0.613949556 C109.011009,0.613949556 109.763267,2.39673644 110.796935,4.80657251 L124.076755,4.80657251 C125.069242,2.45821185 125.810517,0.713676332 125.850327,0.627610758 C125.965636,0.361217316 126.219592,0.19864901 126.517475,0.19864901 L132.153917,0.208211851 C132.991285,0.208211851 133.171113,0.101654474 132.851266,0.854386714 C131.847798,3.22323917 125.33967,17.4131299 124.40072,19.585261 L124.40072,19.585261 Z M40.3702869,23.22322 L34.5852459,23.22322 C34.1290984,23.22322 34,23.0098771 34,22.6351596 L34,0.924789719 C34,0.327156231 34.1420082,0.223219972 34.777459,0.223219972 L40.2555328,0.223219972 C40.8709016,0.223219972 41,0.36134579 41,0.922054554 L41,22.6228513 C41,23.0468018 40.8608607,23.22322 40.3702869,23.22322 L40.3702869,23.22322 Z M27.274384,23.1567175 L22.7492284,23.1567175 C22.1470631,23.1567175 22.0373292,23.0174506 22.0373292,22.452191 L22.0345858,5.28959785 C22.0345858,5.28959785 12.9348944,19.3965121 11.755254,21.2179042 C10.3876941,23.3219262 9.90349287,23.1840247 5.94483907,23.1840247 C1.9793269,23.1840247 0.716014305,23.1567175 0.716014305,23.1567175 C0.111105668,23.1539867 -2.7251295e-14,23.0174506 -2.7251295e-14,22.4576524 L0.0123450742,0.88903798 C0.0123450742,0.303297928 0.142654191,0.185876846 0.728359379,0.185876846 L5.26311664,0.188607569 C5.87625533,0.188607569 5.99147602,0.326509073 5.99147602,0.886307257 L5.98598932,17.8072314 C5.98598932,17.8072314 13.4629893,6.11837224 15.9827561,2.19159278 C17.2570421,0.203626544 17.4833684,0.191338292 21.1498555,0.188607569 L27.2757556,0.191338292 C27.8724342,0.191338292 28,0.303297928 28,0.894499426 L28,22.4549217 C28,23.022912 27.8930094,23.1567175 27.274384,23.1567175 L27.274384,23.1567175 Z M162.270269,23.1567175 L157.749228,23.1567175 C157.148435,23.1567175 157.034586,23.0174506 157.034586,22.452191 L157.031842,5.28959785 C157.031842,5.28959785 147.945868,19.3965121 146.757997,21.2179042 C145.391809,23.3219262 144.910351,23.1840247 140.940724,23.1840247 C136.987557,23.1840247 135.714643,23.1567175 135.714643,23.1567175 C135.113849,23.1539867 135,23.0174506 135,22.4576524 L135.012345,0.88903798 C135.013717,0.303297928 135.142654,0.185876846 135.728359,0.185876846 L140.264488,0.188607569 C140.877627,0.188607569 140.988733,0.326509073 140.988733,0.886307257 L140.984618,17.8072314 C140.984618,17.8072314 148.461618,6.11837224 150.982756,2.19159278 C152.257042,0.203626544 152.477882,0.191338292 156.155342,0.188607569 L162.273012,0.191338292 C162.871063,0.191338292 163,0.303297928 163,0.894499426 L163,22.4549217 C163,23.022912 162.891638,23.1567175 162.270269,23.1567175 L162.270269,23.1567175 Z M64.0118971,14.3855909 C61.796463,14.5989084 55.7423365,15.1622853 53.7581994,15.3386825 C53.0322615,15.4084209 52.8302251,15.8227491 52.7703108,16.2876718 C52.7424437,16.4955196 52.7424437,16.6664471 52.7424437,16.8059239 C52.7424437,17.0165065 52.7521972,17.1286349 52.7703108,17.2858882 C52.8357985,17.9381474 53.1785638,18.2047943 53.8877814,18.2047943 C54.3434084,18.2047943 70.2973205,18.2020594 70.2973205,18.2020594 C70.8936763,18.1993246 71.0427653,18.311453 71.0427653,18.9103829 L71.0427653,22.5682307 C71.0427653,23.1220356 70.8713826,23.217755 70.2987138,23.2204899 L53.6341908,23.2204899 C49.2938907,23.2204899 46.8457663,21.6657336 46.1783494,18.4509298 C46.0306538,17.7289322 46,16.8483139 46,16.2261379 C46,15.4726896 46.0487674,14.6987301 46.1323687,14.102535 C46.3901393,12.2592532 47.5312969,10.0932604 52.5264737,9.61056121 C56.4975348,9.22631626 62.208896,8.75318903 64.1275456,8.59046608 C64.9969989,8.51799284 65.1516613,7.87393814 65.2060021,7.51157191 C65.2282958,7.3720951 65.2394427,7.1642473 65.2394427,6.88939593 C65.2394427,6.64599522 65.2394427,6.38892031 65.2060021,6.03475859 C65.1614148,5.52471103 64.9245445,5.28404516 64.2445874,5.28404516 L46.8401929,5.28404516 C46.2299035,5.28404516 46.1045016,5.16097738 46.1045016,4.57572173 L46.1045016,0.93018071 C46.1045016,0.338087963 46.2494105,0.220489865 46.8360129,0.220489865 L64.0202572,0.220489865 C68.2769561,0.220489865 71.0636656,0.92744587 71.8118971,4.55521044 C71.9707395,5.32096549 72,6.32328416 72,7.02477048 C72,8.10913434 71.9247588,9.08136977 71.8523044,9.44510342 C71.0845659,13.2506326 68.162701,13.984937 64.0118971,14.3855909 L64.0118971,14.3855909 Z M93.0118971,14.3855909 C90.7936763,14.5989084 84.7437299,15.1622853 82.7581994,15.3386825 C82.0322615,15.4084209 81.8274384,15.8227491 81.7661308,16.2876718 C81.7466238,16.4955196 81.7466238,16.6664471 81.7466238,16.8059239 C81.7466238,17.0165065 81.7577706,17.1286349 81.7661308,17.2858882 C81.8357985,17.9381474 82.1743837,18.2047943 82.8989282,18.2047943 C83.3448017,18.2047943 99.3028939,18.2020594 99.3028939,18.2020594 C99.892283,18.1993246 100.038585,18.311453 100.038585,18.9103829 L100.038585,22.5682307 C100.038585,23.1220356 99.8699893,23.217755 99.3028939,23.2204899 L82.6341908,23.2204899 C78.2938907,23.2204899 75.844373,21.6657336 75.1797428,18.4509298 C75.0320472,17.7289322 75,16.8483139 75,16.2261379 C75,15.4726896 75.0473741,14.6987301 75.1309753,14.102535 C75.392926,12.2592532 76.5299035,10.0932604 81.5222937,9.61056121 C85.4919614,9.22631626 91.2116827,8.75318903 93.1289389,8.59046608 C93.9928189,8.51799284 94.1516613,7.87393814 94.2073955,7.51157191 C94.2282958,7.3720951 94.2380493,7.1642473 94.2380493,6.88939593 C94.2380493,6.64599522 94.2380493,6.38892031 94.2073955,6.03475859 C94.1614148,5.52471103 93.9259378,5.28404516 93.2487674,5.28404516 L75.8401929,5.28404516 C75.2257235,5.28404516 75.105895,5.16097738 75.1045016,4.57572173 L75.1072883,0.93018071 C75.1045016,0.338087963 75.2521972,0.220489865 75.8374062,0.220489865 L93.0188639,0.220489865 C97.2755627,0.220489865 100.058092,0.92744587 100.810504,4.55521044 C100.965166,5.32096549 101,6.32328416 101,7.02477048 C101,8.10913434 100.921972,9.08136977 100.846731,9.44510342 C100.077599,13.2506326 97.1613076,13.984937 93.0118971,14.3855909 L93.0118971,14.3855909 Z" id="path7860"></path>
                </g>
            </g>
        </g>
    </g>
</svg>