<?xml version="1.0" encoding="UTF-8"?>
<svg width="225px" height="24px" viewBox="0 0 225 24" version="1.1" xmlns="http://www.w3.org/2000/svg" xmlns:xlink="http://www.w3.org/1999/xlink">
    <!-- Generator: Sketch 57.1 (83088) - https://sketch.com -->
    <title>general-motors-logo-svg-vector</title>
    <desc>Created with Sketch.</desc>
    <g id="Page-1" stroke="none" stroke-width="1" fill="none" fill-rule="evenodd">
        <g id="1920.m1" transform="translate(-1089.000000, -6157.000000)" fill="#FFFFFF" fill-rule="nonzero">
            <g id="general-motors-logo-svg-vector" transform="translate(1089.000000, 6157.000000)">
                <path d="M224.144251,14.9262098 C222.58919,12.3241969 215.008823,12.1166744 213.907137,10.5305059 C212.805451,8.94578868 213.289838,6.01435197 217.132448,6.30749564 C220.978011,6.60209052 219.307761,11.2981941 219.307761,11.2981941 L224.630115,11.2981941 C224.630115,11.2981941 225.671253,3.97250472 216.438356,4 C207.20546,4.02765056 207.698708,11.2691699 210.315581,13.5751367 C212.933931,15.8825547 218.709661,15.4631561 219.935397,17.6196487 C221.161134,19.7703364 218.573796,22.440556 215.465151,21.4232604 C212.356506,20.4088672 213.697432,16.5370488 213.697432,16.5370488 L208.008834,16.5370488 C208.008834,16.5370488 207.379721,24.3735627 216.739622,23.9860907 C226.093615,23.5986186 225.699312,17.5253203 224.144251,14.9262098 L224.144251,14.9262098 Z M175.840377,20.3575381 C174.864743,20.047249 174.755842,19.4695679 174.755842,18.9919801 L174.755842,6.54609885 L178.71805,6.54609885 L178.71805,3.92794529 L174.688712,3.92794529 L174.688712,-4.50015025e-13 L170.102934,-4.50015025e-13 L170.102934,3.87074915 L167,3.89934722 L167,6.58184644 L169.956738,6.58184644 C169.956738,6.58184644 169.926902,18.1397575 169.956738,18.8704383 C169.986574,19.5996892 170.035803,21.0767796 170.775733,21.8975443 C171.518647,22.7211688 172.786673,23 173.117851,23 L179,23 L179,20.3475288 C179.001491,20.3489587 176.971158,20.7207336 175.840377,20.3575381 Z M158.945432,4 C150.889073,4.02857263 150.073491,9.46317701 150.00671,13.2041009 C149.942771,16.9407478 150.155902,24.3413331 159.012213,23.9877702 C167.868525,23.6342073 166.974795,14.2647897 166.974795,13.7330196 C166.974795,13.2041009 167.001792,3.97297201 158.945432,4 Z M158.888868,20.9918643 C155.763365,21.166235 155,18.5336637 155,13.4797505 C155,8.42867266 156.143514,5.97188964 159.080475,6.00024259 C162.017436,6.02859554 163,7.16838408 163,13.6215153 C162.998467,20.0732288 162.017436,20.816076 158.888868,20.9918643 Z M187.948327,3 C179.889078,3.02857061 179.073491,8.4642144 179.00671,12.2020214 C178.94277,15.9384028 179.155903,23.3413134 188.012266,22.9877756 C196.867209,22.6313867 195.974895,13.2626348 195.974895,12.7337536 C195.973474,12.2020214 196.001891,2.97297394 187.948327,3 Z M187.888868,20.9918642 C184.763365,21.1662351 184,18.5336597 184,13.482574 C184,8.43007058 185.143514,5.97328372 188.080475,6.00021906 C191.017436,6.02715441 192,7.16836238 192,13.620086 C192,20.0718096 191.017436,20.814658 187.888868,20.9918642 Z M147.007482,1.73472149 C147.461854,1.26177585 148,1.05992678 148,1.05992678 C148,1.05992678 146.979084,-0.0288795167 146.979084,0.0005875009 C146.979084,0.0300545185 140.627819,0.212750028 140.627819,0.212750028 L135.029108,17.1695453 L129.233029,0.270210712 L122.502649,0.125822326 C122.502649,0.125822326 123.032276,0.616448169 123.340396,1.25293575 C123.681175,1.94688401 123.811807,2.42866975 123.811807,2.79406077 C123.811807,3.15945179 123.60876,18.8064381 123.60876,18.8064381 C123.60876,18.8064381 123.60876,20.5037384 123.189886,21.8503811 C122.931592,22.640319 122.527432,23.370464 122,24 L128.267489,24 C128.267489,24 127.45246,22.7977457 127.100322,21.5542375 C126.689968,20.1177204 126.745344,18.625216 126.745344,18.625216 L126.745344,5.58900739 L132.392332,23.693543 L136.089782,23.693543 L141.799246,6.10910025 L141.799246,20.07794 C141.799246,20.07794 141.787887,21.1976866 141.491126,22.1494713 C141.297736,22.7464674 141.016069,23.3086347 140.656218,23.8158311 L147.916225,23.8158311 C147.916225,23.8158311 147.294304,23.2868982 146.886789,22.3424803 C146.487794,21.4186893 146.301786,20.07794 146.301786,20.07794 L146.301786,2.82352779 C146.303206,2.49644389 146.619846,2.13841963 147.007482,1.73472149 L147.007482,1.73472149 Z M111.58567,19.3296197 L111.61433,-2.84813839e-13 L106,-2.84813839e-13 C106,-2.84813839e-13 106.517298,0.616978901 106.854043,1.31984814 C107.117707,1.87240929 107.18219,2.25605278 107.209417,2.5452169 C107.236643,2.83438103 107.180757,19.1607021 107.180757,19.1607021 C107.180757,19.1607021 107.13347,20.4719612 106.825384,21.4926246 C106.649477,22.0346192 106.369078,22.5369779 106,22.9713699 L113,23 C113,23 112.380962,22.4102197 112.04565,21.5398643 C111.670215,20.5764611 111.58567,19.3296197 111.58567,19.3296197 L111.58567,19.3296197 Z M104.051443,20.3599929 C104.051443,20.3599929 104.051443,11.6337159 104.021847,10.6787594 C103.992251,9.72235598 104.507224,3.74374936 95.7216019,4.00853276 C86.9330204,4.27476306 88.3935912,11.5497955 88.3935912,11.5497955 L93.5536827,11.5497955 C93.5536827,11.5497955 92.0501975,6.60138442 96.2617319,6.50733567 C100.473266,6.41328692 99.5913006,10.4819805 99.233187,10.7178258 C99.1458783,10.7742551 98.1203712,11.1909634 96.6124465,11.5411141 C94.7834034,11.9665038 92.285487,12.4034688 90.5541113,13.3859165 C87.9792448,14.8328203 87.3414475,17.3229418 88.6851134,20.7188251 C90.0302592,24.1161553 95.0142535,24.5675892 97.9472336,23.4621547 C99.7940344,22.7618533 100.209861,21.4552991 100.209861,21.4552991 L100.239457,23.9338454 L105,23.9338454 C105,23.9338454 104.702559,23.4216414 104.487986,22.6084815 C104.236419,21.6448435 104.051443,20.3599929 104.051443,20.3599929 L104.051443,20.3599929 Z M99.5673579,18.6683468 C99.1865211,19.9797506 96.6867079,21.8030296 94.6164788,20.615538 C92.543203,19.4280464 92.8905262,17.2964621 93.3490537,15.8994999 C94.38493,12.7736679 99.9162045,13.0037905 99.9162045,13.0037905 C99.9162045,13.0037905 100.255911,16.2948387 99.5673579,18.6683468 L99.5673579,18.6683468 Z" id="Shape"></path>
                <path d="M86.3038926,4.15664354 C85.2127517,4.51936529 84.1895302,6.09844314 83.8514094,6.18584597 C83.5132886,6.2732488 83.6387919,4.41448189 83.6387919,4.41448189 L78,4.41448189 C78,4.41448189 78.7057718,5.42398461 79.033557,6.11009685 C79.3613423,6.79620909 79.3716779,8.34906608 79.3716779,8.34906608 L79.3716779,20.751528 C79.3716779,20.751528 79.3524832,21.9067022 79.0143624,22.7428559 C78.8166679,23.2192151 78.5008793,23.6389624 78.0959732,23.9635822 L85.6187919,24 C85.6187919,24 84.961745,23.4275114 84.5955705,22.579704 C84.1614765,21.6007922 83.7967785,19.8600192 83.7967785,19.8600192 C83.7967785,19.8600192 83.795302,11.2071387 83.9488591,10.330197 C84.1024161,9.4532552 84.8465772,8.11016501 86.0543624,7.77803424 C87.3389262,7.42550948 89,8.74092212 89,8.74092212 L89,4.44361617 C88.9985235,4.44215946 87.7626846,3.6802981 86.3038926,4.15664354 L86.3038926,4.15664354 Z M205.301302,4.15606379 C204.211784,4.51733938 203.187223,6.09937688 202.850624,6.18532551 C202.512549,6.27127414 202.636559,4.41390968 202.636559,4.41390968 L197,4.41390968 C197,4.41390968 197.704201,5.42344189 198.031942,6.10957417 C198.359683,6.79570646 198.370017,8.34860882 198.370017,8.34860882 L198.370017,20.7514331 C198.370017,20.7514331 198.352302,21.9037275 198.01275,22.7428192 C197.716011,23.5017893 197.09596,23.9606676 197.09596,23.9606676 L204.619246,24 C204.619246,24 204.056771,23.3138677 203.596162,22.5796625 C203.1326,21.8425437 202.863911,20.3887008 202.863911,20.3887008 C202.863911,20.3887008 202.794524,11.2038514 202.948061,10.3268841 C203.103073,9.45137344 203.847135,8.10824401 205.053281,7.77464678 C206.339149,7.42211172 208,8.73610603 208,8.73610603 L208,4.44158805 C207.997047,4.44158805 206.759898,3.68116119 205.301302,4.15606379 Z M56.889337,21.0211144 L56.889337,9.79311869 C56.889337,8.15458689 55.607356,4.02930806 50.993386,4.00035874 C46.3779642,3.97140941 46.3779642,5.70402652 45.9612841,5.77060997 C45.5431521,5.83719342 45.515567,4.33182851 45.515567,4.33182851 L40.037748,4.33182851 C40.037748,4.33182851 40.4065172,4.78488545 40.968382,5.95009578 C41.528795,7.11385865 41.357477,8.03155226 41.357477,8.03155226 C41.357477,8.03155226 41.386514,20.6302986 41.357477,21.0486163 C41.357477,21.0934878 41.215196,22.0213136 40.930634,22.6857006 C40.6068721,23.4514103 40,24 40,24 L47.3390869,23.9710507 C47.3390869,23.9710507 46.7888369,23.5165463 46.494112,22.7783385 C46.269592,22.1534335 46.1318422,21.5008529 46.0846911,20.8387337 L46.0846911,9.1967626 C46.0846911,8.8363435 46.9485401,6.99082402 49.3411841,6.93437284 C51.733828,6.87792165 52.2840781,8.69593927 52.313115,9.887204 C52.342152,11.0799162 52.313115,21.0211144 52.313115,21.0211144 C52.313115,21.0211144 52.3218261,22.0140763 52.009679,22.7624164 C51.7352799,23.4036439 51.116793,23.8219617 51.116793,23.8219617 L58,23.8219617 C58,23.8219617 57.54412,23.3095586 57.2885949,22.6466191 C56.99387,21.9098587 56.889337,21.0211144 56.889337,21.0211144 L56.889337,21.0211144 Z M30.7834985,4 C21.8955855,4 22,11.171601 22,15.2589825 C22,19.3463639 23.1268306,24 31.2542254,24 C39.3830912,24 38.7476098,16.7723484 38.7476098,16.7723484 L33.4945914,16.7723484 L33.4945914,20.0620868 C33.4945914,20.5033055 32.9753208,21.6027594 30.3113005,21.6027594 C27.6458092,21.6027594 27.1750823,20.0893935 27.1750823,19.7617131 L27.1839084,14.6668583 L38.9873864,14.6668583 C38.9888574,14.6682955 39.6714114,4 30.7834985,4 Z M33.954867,12 L27.0394312,11.9360525 C27.0394312,11.9360525 26.3734347,5.96815428 30.515608,6.00012802 C34.6577813,6.03210176 33.954867,12 33.954867,12 Z M67.7830041,4 C58.8955914,4 59,11.1711945 59,15.2606008 C59,19.3485698 60.1252963,24 68.2537045,24 C76.3821128,24 75.7481381,16.7741843 75.7481381,16.7741843 L70.4954154,16.7741843 L70.4954154,20.0643956 C70.4954154,20.5056777 69.974703,21.6052896 67.3108327,21.6052896 C64.6454914,21.6052896 64.174791,20.0917062 64.174791,19.7611039 L64.1850876,14.6683915 L75.9879012,14.6683915 C75.9879012,14.6683915 76.6704168,4 67.7830041,4 L67.7830041,4 Z M70.9546223,12 L64.0394382,11.9376512 C64.0394382,11.9376512 63.3733237,5.96815425 67.5162309,6.00012799 C71.659138,6.03050304 70.9546223,12 70.9546223,12 Z M9.57156652,13.2720256 L14.9577926,13.2720256 C14.9577926,13.2720256 15.0146432,17.2341536 14.9577926,17.6844954 C14.9009421,18.137771 13.937398,21.3884469 9.87768492,21.303366 C5.81651415,21.2168182 4.75821911,18.4443555 4.81506967,12.5444375 C4.87192023,6.64451955 4.64306029,2.50929607 9.99138604,2.25992112 C15.3382541,2.01201308 14.4723763,7.76670683 14.4723763,7.76670683 L19.7623938,7.76670683 C19.7623938,7.76670683 20.0393581,-0.519876146 9.66777516,0.0258149263 C-0.703807761,0.57297291 0.010468505,6.73106732 0.010468505,14.3560732 C0.010468505,21.982546 4.56725954,23.8821964 9.46661164,23.9966155 C14.3659637,24.1139684 16.3965491,21.1405388 16.3965491,21.1405388 L16.3965491,23.8249869 L20,23.7956486 L20,10.3088644 L9.57156652,10.3088644 L9.57156652,13.2720256 L9.57156652,13.2720256 Z" id="Shape"></path>
            </g>
        </g>
    </g>
</svg>